<svg width="104" height="35" viewBox="0 0 104 35" fill="none" xmlns="http://www.w3.org/2000/svg">
<path d="M5.41357 20.7129C5.52197 21.6283 5.75684 22.2786 6.11816 22.6641C6.75651 23.3506 7.93685 23.6938 9.65918 23.6938C10.6709 23.6938 11.4718 23.5433 12.062 23.2422C12.6642 22.9411 12.9653 22.4894 12.9653 21.8872C12.9653 21.3091 12.7244 20.8695 12.2427 20.5684C11.7609 20.2673 9.97233 19.7493 6.87695 19.0146C4.64876 18.4606 3.07699 17.7681 2.16162 16.937C1.24626 16.118 0.788574 14.9377 0.788574 13.396C0.788574 11.5773 1.49919 10.0176 2.92041 8.7168C4.35368 7.40397 6.36507 6.74756 8.95459 6.74756C11.4116 6.74756 13.411 7.24137 14.9526 8.229C16.5063 9.20459 17.3976 10.8968 17.6265 13.3057H12.4775C12.4053 12.6432 12.2186 12.1193 11.9175 11.7339C11.3514 11.0353 10.3879 10.686 9.02686 10.686C7.90674 10.686 7.10579 10.8607 6.62402 11.21C6.1543 11.5592 5.91943 11.9688 5.91943 12.4385C5.91943 13.0286 6.17236 13.4562 6.67822 13.7212C7.18408 13.9982 8.97266 14.474 12.0439 15.1484C14.0915 15.6302 15.6271 16.3589 16.6509 17.3345C17.6626 18.3221 18.1685 19.5566 18.1685 21.0381C18.1685 22.9893 17.4398 24.5851 15.9824 25.8257C14.5371 27.0542 12.2969 27.6685 9.26172 27.6685C6.16634 27.6685 3.87793 27.0181 2.39648 25.7173C0.927083 24.4045 0.192383 22.7363 0.192383 20.7129H5.41357ZM32.8564 17.4248C32.5312 17.6296 32.2 17.7982 31.8628 17.9307C31.5376 18.0511 31.0859 18.1655 30.5078 18.2739L29.3516 18.4907C28.2676 18.6834 27.4907 18.9183 27.021 19.1953C26.2261 19.665 25.8286 20.3937 25.8286 21.3813C25.8286 22.2606 26.0695 22.8989 26.5513 23.2964C27.0451 23.6818 27.6413 23.8745 28.3398 23.8745C29.4479 23.8745 30.4657 23.5493 31.3931 22.8989C32.3325 22.2485 32.8203 21.0622 32.8564 19.3398V17.4248ZM29.731 15.022C30.6825 14.9015 31.363 14.751 31.7725 14.5703C32.5072 14.2572 32.8745 13.7694 32.8745 13.1069C32.8745 12.3 32.5915 11.7459 32.0254 11.4448C31.4714 11.1317 30.6523 10.9751 29.5684 10.9751C28.3519 10.9751 27.4907 11.2762 26.9849 11.8784C26.6235 12.3241 26.3826 12.9263 26.2622 13.6851H21.2939C21.4023 11.9627 21.8841 10.5475 22.7393 9.43945C24.1003 7.70508 26.4368 6.83789 29.749 6.83789C31.9049 6.83789 33.82 7.26546 35.4941 8.12061C37.1683 8.97575 38.0054 10.5897 38.0054 12.9624V21.9956C38.0054 22.6219 38.0174 23.3807 38.0415 24.272C38.0776 24.9465 38.18 25.4041 38.3486 25.645C38.5173 25.8859 38.7702 26.0846 39.1074 26.2412V27H33.5068C33.3503 26.6025 33.2419 26.2292 33.1816 25.8799C33.1214 25.5306 33.0732 25.1331 33.0371 24.6875C32.3265 25.4583 31.5075 26.1147 30.5801 26.6567C29.472 27.2951 28.2194 27.6143 26.8223 27.6143C25.0397 27.6143 23.5643 27.1084 22.396 26.0967C21.2397 25.0729 20.6616 23.6276 20.6616 21.7607C20.6616 19.3398 21.5951 17.5874 23.4619 16.5034C24.4857 15.9132 25.9912 15.4917 27.9785 15.2388L29.731 15.022ZM49.8569 0.0991211C50.1821 0.0991211 50.4772 0.111165 50.7422 0.135254C51.0072 0.147298 51.3685 0.171387 51.8262 0.20752V4.39893C51.5371 4.36279 51.0493 4.3387 50.3628 4.32666C49.6883 4.30257 49.2186 4.45312 48.9536 4.77832C48.7007 5.09147 48.5742 5.44076 48.5742 5.82617C48.5742 6.21159 48.5742 6.76562 48.5742 7.48828H51.9526V11.1196H48.5742V27H43.4434V11.1196H40.5708V7.48828H43.3892V6.22363C43.3892 4.11589 43.7445 2.66455 44.4551 1.86963C45.2018 0.68929 47.0024 0.0991211 49.8569 0.0991211ZM62.6841 11.0293C61.4917 11.0293 60.5643 11.4027 59.9019 12.1494C59.2515 12.8962 58.842 13.9079 58.6733 15.1846H66.6768C66.5924 13.8236 66.1769 12.7938 65.4302 12.0952C64.6955 11.3846 63.7801 11.0293 62.6841 11.0293ZM62.6841 6.78369C64.3221 6.78369 65.7975 7.09082 67.1104 7.70508C68.4232 8.31934 69.5072 9.2889 70.3623 10.6138C71.1331 11.7821 71.633 13.137 71.8618 14.6787C71.9943 15.582 72.0485 16.8828 72.0244 18.5811H58.5469C58.6191 20.5563 59.2394 21.9414 60.4077 22.7363C61.1183 23.2301 61.9735 23.4771 62.9731 23.4771C64.033 23.4771 64.8942 23.1759 65.5566 22.5737C65.918 22.2485 66.2371 21.7969 66.5142 21.2188H71.7715C71.639 22.387 71.0308 23.5734 69.9468 24.7778C68.2606 26.6929 65.8999 27.6504 62.8647 27.6504C60.3595 27.6504 58.1494 26.8434 56.2344 25.2295C54.3193 23.6156 53.3618 20.9899 53.3618 17.3525C53.3618 13.944 54.223 11.3304 55.9453 9.51172C57.6797 7.69303 59.9259 6.78369 62.6841 6.78369ZM80.7686 27H75.6196V0.370117H80.7686V27ZM86.604 30.7759L87.2544 30.812C87.7603 30.8361 88.242 30.818 88.6997 30.7578C89.1574 30.6976 89.5428 30.5591 89.856 30.3423C90.1571 30.1375 90.4341 29.71 90.687 29.0596C90.952 28.4092 91.0604 28.0117 91.0122 27.8672L83.7856 7.30762H89.5127L93.8125 21.833L97.8774 7.30762H103.352L96.5947 26.6748C95.2939 30.4085 94.2642 32.721 93.5054 33.6123C92.7466 34.5156 91.229 34.9673 88.9526 34.9673C88.495 34.9673 88.1276 34.9613 87.8506 34.9492C87.5736 34.9492 87.158 34.9312 86.604 34.895V30.7759Z" fill="#091F5B"/>
</svg>
